<?xml version="1.0" encoding="UTF-8" standalone="no"?>
<svg width="169px" height="14px" viewBox="0 0 169 14" version="1.1" xmlns="http://www.w3.org/2000/svg" xmlns:xlink="http://www.w3.org/1999/xlink" xmlns:sketch="http://www.bohemiancoding.com/sketch/ns">
    <!-- Generator: Sketch 3.4.2 (15855) - http://www.bohemiancoding.com/sketch -->
    <title>Confetti 2</title>
    <desc>Created with Sketch.</desc>
    <defs></defs>
    <g id="Designed" stroke="none" stroke-width="1" fill="none" fill-rule="evenodd" sketch:type="MSPage">
        <g id="Grid-design" sketch:type="MSArtboardGroup" transform="translate(-636.000000, -50.000000)" fill="#8FA4AF">
            <g id="Confetti-2" sketch:type="MSLayerGroup" transform="translate(636.000000, 50.000000)">
                <path d="M6.17241753,13.2018229 C5.33709073,13.2018229 4.5816639,13.0546618 3.90611437,12.7603353 C3.23056484,12.4660087 2.65593589,12.0469501 2.18221029,11.5031467 C1.70848468,10.9593433 1.34408584,10.3006224 1.08900282,9.52696398 C0.833919804,8.75330559 0.706380208,7.88715757 0.706380208,6.92849392 C0.706380208,5.9754365 0.835321338,5.11349308 1.09320747,4.3426378 C1.35109359,3.57178253 1.71829551,2.91306154 2.19482422,2.36645508 C2.67135293,1.81984861 3.24598188,1.39938841 3.9187283,1.10506185 C4.59147472,0.810735291 5.34269695,0.663574219 6.17241753,0.663574219 C6.83395151,0.663574219 7.44922495,0.760280066 8.01825629,0.953694661 C8.58728764,1.14710926 9.09324142,1.41900686 9.53613281,1.76939562 C9.97902421,2.11978438 10.3448246,2.54304765 10.6335449,3.03919813 C10.9222653,3.53534862 11.1142754,4.08615149 11.2095812,4.69162326 L9.67909071,4.69162326 C9.58378497,4.29358163 9.42821469,3.93338739 9.21237522,3.61102973 C8.99653574,3.28867207 8.73585041,3.01256987 8.43031141,2.78271484 C8.12477242,2.55285982 7.77999505,2.374865 7.39596897,2.24872504 C7.01194289,2.12258509 6.60409649,2.05951606 6.17241753,2.05951606 C5.5781582,2.05951606 5.03996914,2.17444185 4.5578342,2.40429688 C4.07569927,2.6341519 3.6650498,2.96211086 3.32587348,3.38818359 C2.98669716,3.81425633 2.7246103,4.32581624 2.53960503,4.92287869 C2.35459977,5.51994114 2.26209852,6.18847286 2.26209852,6.92849392 C2.26209852,7.6741212 2.35319824,8.34685753 2.53540039,8.94672309 C2.71760255,9.54658865 2.97968941,10.0581486 3.32166884,10.4814182 C3.66364827,10.9046878 4.07569927,11.2312452 4.5578342,11.4611003 C5.03996914,11.6909553 5.58096127,11.8058811 6.18082682,11.8058811 C6.62371822,11.8058811 7.03576922,11.7540243 7.41699219,11.6503092 C7.79821516,11.5465942 8.13738639,11.393827 8.43451606,11.192003 C8.73164573,10.9901791 8.98532338,10.7449107 9.19555664,10.4561903 C9.4057899,10.16747 9.56696631,9.83810949 9.67909071,9.46809896 L11.2095812,9.46809896 C10.9292702,10.6734363 10.3574443,11.5970472 9.49408637,12.2389594 C8.63072847,12.8808716 7.52351659,13.2018229 6.17241753,13.2018229 L6.17241753,13.2018229 Z" id="C" sketch:type="MSShapeGroup"></path>
                <path d="M32.7326654,0.663574219 C33.5904171,0.663574219 34.3654654,0.809333757 35.0578336,1.1008572 C35.7502018,1.39238065 36.3374445,1.81003779 36.8195794,2.35384115 C37.3017144,2.8976445 37.6731209,3.55636549 37.9338101,4.33002387 C38.1944994,5.10368225 38.324842,5.97263334 38.324842,6.93690321 C38.324842,7.90117308 38.1944994,8.77012417 37.9338101,9.54378255 C37.6731209,10.3174409 37.3017144,10.9747604 36.8195794,11.5157606 C36.3374445,12.0567609 35.7502018,12.4730165 35.0578336,12.7645399 C34.3654654,13.0560634 33.5904171,13.2018229 32.7326654,13.2018229 C31.8749137,13.2018229 31.0998654,13.0560634 30.4074972,12.7645399 C29.715129,12.4730165 29.1278863,12.0567609 28.6457513,11.5157606 C28.1636164,10.9747604 27.7922099,10.3174409 27.5315206,9.54378255 C27.2708314,8.77012417 27.1404887,7.90117308 27.1404887,6.93690321 C27.1404887,5.97263334 27.2708314,5.10368225 27.5315206,4.33002387 C27.7922099,3.55636549 28.1636164,2.8976445 28.6457513,2.35384115 C29.1278863,1.81003779 29.715129,1.39238065 30.4074972,1.1008572 C31.0998654,0.809333757 31.8749137,0.663574219 32.7326654,0.663574219 L32.7326654,0.663574219 Z M32.7326654,2.05951606 C32.1103749,2.05951606 31.5511629,2.17304031 31.0550124,2.40009223 C30.5588619,2.62714415 30.1355986,2.95230004 29.7852099,3.37556966 C29.4348211,3.79883928 29.1657266,4.31180073 28.9779182,4.9144694 C28.7901098,5.51713807 28.6962071,6.19127593 28.6962071,6.93690321 C28.6962071,7.68253049 28.7901098,8.35526682 28.9779182,8.95513238 C29.1657266,9.55499794 29.4348211,10.0665579 29.7852099,10.4898275 C30.1355986,10.9130971 30.5588619,11.238253 31.0550124,11.4653049 C31.5511629,11.6923568 32.1103749,11.8058811 32.7326654,11.8058811 C33.3549558,11.8058811 33.9141679,11.6923568 34.4103184,11.4653049 C34.9064689,11.238253 35.3297321,10.9130971 35.6801209,10.4898275 C36.0305097,10.0665579 36.2996042,9.55499794 36.4874126,8.95513238 C36.6752209,8.35526682 36.7691237,7.68253049 36.7691237,6.93690321 C36.7691237,6.19127593 36.6752209,5.51713807 36.4874126,4.9144694 C36.2996042,4.31180073 36.0305097,3.79883928 35.6801209,3.37556966 C35.3297321,2.95230004 34.9064689,2.62714415 34.4103184,2.40009223 C33.9141679,2.17304031 33.3549558,2.05951606 32.7326654,2.05951606 L32.7326654,2.05951606 Z" id="O" sketch:type="MSShapeGroup"></path>
                <path d="M54.8982306,13 L54.8982306,0.865397135 L56.369856,0.865397135 L63.0131937,10.3931207 L63.0888773,10.3931207 L63.0888773,0.865397135 L64.5857306,0.865397135 L64.5857306,13 L63.1141051,13 L56.4707675,3.50591363 L56.3950839,3.50591363 L56.3950839,13 L54.8982306,13 Z" id="N" sketch:type="MSShapeGroup"></path>
                <path d="M81.3323391,13 L81.3323391,0.865397135 L88.6988756,0.865397135 L88.6988756,2.22770182 L82.846011,2.22770182 L82.846011,6.39870877 L88.2195461,6.39870877 L88.2195461,7.74419488 L82.846011,7.74419488 L82.846011,13 L81.3323391,13 Z" id="F" sketch:type="MSShapeGroup"></path>
                <path d="M111.020785,13 L103.502882,13 L103.502882,0.865397135 L111.020785,0.865397135 L111.020785,2.22770182 L105.016554,2.22770182 L105.016554,6.12120226 L110.709642,6.12120226 L110.709642,7.46668837 L105.016554,7.46668837 L105.016554,11.6376953 L111.020785,11.6376953 L111.020785,13 Z" id="E" sketch:type="MSShapeGroup"></path>
                <path d="M129.679621,13 L129.679621,2.22770182 L125.769302,2.22770182 L125.769302,0.865397135 L135.103612,0.865397135 L135.103612,2.22770182 L131.193293,2.22770182 L131.193293,13 L129.679621,13 Z" id="T" sketch:type="MSShapeGroup"></path>
                <path d="M150.99745,13 L150.99745,2.22770182 L147.087131,2.22770182 L147.087131,0.865397135 L156.421441,0.865397135 L156.421441,2.22770182 L152.511122,2.22770182 L152.511122,13 L150.99745,13 Z" id="T" sketch:type="MSShapeGroup"></path>
                <path d="M167.45637,13 L167.45637,0.865397135 L168.970042,0.865397135 L168.970042,13 L167.45637,13 Z" id="I" sketch:type="MSShapeGroup"></path>
            </g>
        </g>
    </g>
</svg>